<?xml version="1.0" encoding="utf-8" standalone="no"?>
<!DOCTYPE svg PUBLIC "-//W3C//DTD SVG 1.1//EN"
  "http://www.w3.org/Graphics/SVG/1.1/DTD/svg11.dtd">
<svg xmlns:xlink="http://www.w3.org/1999/xlink" width="938.9375pt" height="483.207063pt" viewBox="0 0 938.9375 483.207063" xmlns="http://www.w3.org/2000/svg" version="1.1">
 <metadata>
  <rdf:RDF xmlns:dc="http://purl.org/dc/elements/1.1/" xmlns:cc="http://creativecommons.org/ns#" xmlns:rdf="http://www.w3.org/1999/02/22-rdf-syntax-ns#">
   <cc:Work>
    <dc:type rdf:resource="http://purl.org/dc/dcmitype/StillImage"/>
    <dc:date>2024-02-06T11:38:12.219563</dc:date>
    <dc:format>image/svg+xml</dc:format>
    <dc:creator>
     <cc:Agent>
      <dc:title>Matplotlib v3.7.2, https://matplotlib.org/</dc:title>
     </cc:Agent>
    </dc:creator>
   </cc:Work>
  </rdf:RDF>
 </metadata>
 <defs>
  <style type="text/css">*{stroke-linejoin: round; stroke-linecap: butt}</style>
 </defs>
 <g id="figure_1">
  <g id="patch_1">
   <path d="M 0 483.207063 
L 938.9375 483.207063 
L 938.9375 0 
L 0 0 
z
" style="fill: #ffffff"/>
  </g>
  <g id="axes_1">
   <g id="patch_2">
    <path d="M 218.90875 404.64 
L 665.30875 404.64 
L 665.30875 72 
L 218.90875 72 
z
" style="fill: #ffffff"/>
   </g>
   <g id="patch_3">
    <path d="M 218.90875 388.008 
L 384.761183 388.008 
L 384.761183 371.376 
L 218.90875 371.376 
z
" clip-path="url(#pf6cd2acf58)" style="fill: #1f77b4"/>
   </g>
   <g id="patch_4">
    <path d="M 218.90875 321.48 
L 471.79545 321.48 
L 471.79545 304.848 
L 218.90875 304.848 
z
" clip-path="url(#pf6cd2acf58)" style="fill: #1f77b4"/>
   </g>
   <g id="patch_5">
    <path d="M 218.90875 254.952 
L 361.877144 254.952 
L 361.877144 238.32 
L 218.90875 238.32 
z
" clip-path="url(#pf6cd2acf58)" style="fill: #1f77b4"/>
   </g>
   <g id="patch_6">
    <path d="M 218.90875 188.424 
L 488.165893 188.424 
L 488.165893 171.792 
L 218.90875 171.792 
z
" clip-path="url(#pf6cd2acf58)" style="fill: #1f77b4"/>
   </g>
   <g id="patch_7">
    <path d="M 218.90875 121.896 
L 406.25984 121.896 
L 406.25984 105.264 
L 218.90875 105.264 
z
" clip-path="url(#pf6cd2acf58)" style="fill: #1f77b4"/>
   </g>
   <g id="patch_8">
    <path d="M 218.90875 371.376 
L 502.337321 371.376 
L 502.337321 354.744 
L 218.90875 354.744 
z
" clip-path="url(#pf6cd2acf58)" style="fill: #ff7f0e"/>
   </g>
   <g id="patch_9">
    <path d="M 218.90875 304.848 
L 541.430917 304.848 
L 541.430917 288.216 
L 218.90875 288.216 
z
" clip-path="url(#pf6cd2acf58)" style="fill: #ff7f0e"/>
   </g>
   <g id="patch_10">
    <path d="M 218.90875 238.32 
L 528.103555 238.32 
L 528.103555 221.688 
L 218.90875 221.688 
z
" clip-path="url(#pf6cd2acf58)" style="fill: #ff7f0e"/>
   </g>
   <g id="patch_11">
    <path d="M 218.90875 171.792 
L 431.480179 171.792 
L 431.480179 155.16 
L 218.90875 155.16 
z
" clip-path="url(#pf6cd2acf58)" style="fill: #ff7f0e"/>
   </g>
   <g id="patch_12">
    <path d="M 218.90875 105.264 
L 644.051607 105.264 
L 644.051607 88.632 
L 218.90875 88.632 
z
" clip-path="url(#pf6cd2acf58)" style="fill: #ff7f0e"/>
   </g>
   <g id="matplotlib.axis_1">
    <g id="xtick_1">
     <g id="line2d_1">
      <path d="M 218.90875 404.64 
L 218.90875 72 
" clip-path="url(#pf6cd2acf58)" style="fill: none; stroke-dasharray: 0.925,0.4; stroke-dashoffset: 0; stroke: #808080; stroke-opacity: 0.5; stroke-width: 0.25"/>
     </g>
     <g id="line2d_2">
      <defs>
       <path id="mde5472a80b" d="M 0 0 
L 0 3.5 
" style="stroke: #000000; stroke-width: 0.8"/>
      </defs>
      <g>
       <use xlink:href="#mde5472a80b" x="218.90875" y="404.64" style="stroke: #000000; stroke-width: 0.8"/>
      </g>
     </g>
     <g id="text_1">
      <!-- 0.0% -->
      <g transform="translate(206.206406 419.238438) scale(0.1 -0.1)">
       <defs>
        <path id="DejaVuSans-30" d="M 2034 4250 
Q 1547 4250 1301 3770 
Q 1056 3291 1056 2328 
Q 1056 1369 1301 889 
Q 1547 409 2034 409 
Q 2525 409 2770 889 
Q 3016 1369 3016 2328 
Q 3016 3291 2770 3770 
Q 2525 4250 2034 4250 
z
M 2034 4750 
Q 2819 4750 3233 4129 
Q 3647 3509 3647 2328 
Q 3647 1150 3233 529 
Q 2819 -91 2034 -91 
Q 1250 -91 836 529 
Q 422 1150 422 2328 
Q 422 3509 836 4129 
Q 1250 4750 2034 4750 
z
" transform="scale(0.015625)"/>
        <path id="DejaVuSans-2e" d="M 684 794 
L 1344 794 
L 1344 0 
L 684 0 
L 684 794 
z
" transform="scale(0.015625)"/>
        <path id="DejaVuSans-25" d="M 4653 2053 
Q 4381 2053 4226 1822 
Q 4072 1591 4072 1178 
Q 4072 772 4226 539 
Q 4381 306 4653 306 
Q 4919 306 5073 539 
Q 5228 772 5228 1178 
Q 5228 1588 5073 1820 
Q 4919 2053 4653 2053 
z
M 4653 2450 
Q 5147 2450 5437 2106 
Q 5728 1763 5728 1178 
Q 5728 594 5436 251 
Q 5144 -91 4653 -91 
Q 4153 -91 3862 251 
Q 3572 594 3572 1178 
Q 3572 1766 3864 2108 
Q 4156 2450 4653 2450 
z
M 1428 4353 
Q 1159 4353 1004 4120 
Q 850 3888 850 3481 
Q 850 3069 1003 2837 
Q 1156 2606 1428 2606 
Q 1700 2606 1854 2837 
Q 2009 3069 2009 3481 
Q 2009 3884 1853 4118 
Q 1697 4353 1428 4353 
z
M 4250 4750 
L 4750 4750 
L 1831 -91 
L 1331 -91 
L 4250 4750 
z
M 1428 4750 
Q 1922 4750 2215 4408 
Q 2509 4066 2509 3481 
Q 2509 2891 2217 2550 
Q 1925 2209 1428 2209 
Q 931 2209 642 2551 
Q 353 2894 353 3481 
Q 353 4063 643 4406 
Q 934 4750 1428 4750 
z
" transform="scale(0.015625)"/>
       </defs>
       <use xlink:href="#DejaVuSans-30"/>
       <use xlink:href="#DejaVuSans-2e" x="63.623047"/>
       <use xlink:href="#DejaVuSans-30" x="95.410156"/>
       <use xlink:href="#DejaVuSans-25" x="159.033203"/>
      </g>
     </g>
    </g>
    <g id="xtick_2">
     <g id="line2d_3">
      <path d="M 303.937321 404.64 
L 303.937321 72 
" clip-path="url(#pf6cd2acf58)" style="fill: none; stroke-dasharray: 0.925,0.4; stroke-dashoffset: 0; stroke: #808080; stroke-opacity: 0.5; stroke-width: 0.25"/>
     </g>
     <g id="line2d_4">
      <g>
       <use xlink:href="#mde5472a80b" x="303.937321" y="404.64" style="stroke: #000000; stroke-width: 0.8"/>
      </g>
     </g>
     <g id="text_2">
      <!-- 20.0% -->
      <g transform="translate(288.053728 419.238438) scale(0.1 -0.1)">
       <defs>
        <path id="DejaVuSans-32" d="M 1228 531 
L 3431 531 
L 3431 0 
L 469 0 
L 469 531 
Q 828 903 1448 1529 
Q 2069 2156 2228 2338 
Q 2531 2678 2651 2914 
Q 2772 3150 2772 3378 
Q 2772 3750 2511 3984 
Q 2250 4219 1831 4219 
Q 1534 4219 1204 4116 
Q 875 4013 500 3803 
L 500 4441 
Q 881 4594 1212 4672 
Q 1544 4750 1819 4750 
Q 2544 4750 2975 4387 
Q 3406 4025 3406 3419 
Q 3406 3131 3298 2873 
Q 3191 2616 2906 2266 
Q 2828 2175 2409 1742 
Q 1991 1309 1228 531 
z
" transform="scale(0.015625)"/>
       </defs>
       <use xlink:href="#DejaVuSans-32"/>
       <use xlink:href="#DejaVuSans-30" x="63.623047"/>
       <use xlink:href="#DejaVuSans-2e" x="127.246094"/>
       <use xlink:href="#DejaVuSans-30" x="159.033203"/>
       <use xlink:href="#DejaVuSans-25" x="222.65625"/>
      </g>
     </g>
    </g>
    <g id="xtick_3">
     <g id="line2d_5">
      <path d="M 388.965893 404.64 
L 388.965893 72 
" clip-path="url(#pf6cd2acf58)" style="fill: none; stroke-dasharray: 0.925,0.4; stroke-dashoffset: 0; stroke: #808080; stroke-opacity: 0.5; stroke-width: 0.25"/>
     </g>
     <g id="line2d_6">
      <g>
       <use xlink:href="#mde5472a80b" x="388.965893" y="404.64" style="stroke: #000000; stroke-width: 0.8"/>
      </g>
     </g>
     <g id="text_3">
      <!-- 40.0% -->
      <g transform="translate(373.082299 419.238438) scale(0.1 -0.1)">
       <defs>
        <path id="DejaVuSans-34" d="M 2419 4116 
L 825 1625 
L 2419 1625 
L 2419 4116 
z
M 2253 4666 
L 3047 4666 
L 3047 1625 
L 3713 1625 
L 3713 1100 
L 3047 1100 
L 3047 0 
L 2419 0 
L 2419 1100 
L 313 1100 
L 313 1709 
L 2253 4666 
z
" transform="scale(0.015625)"/>
       </defs>
       <use xlink:href="#DejaVuSans-34"/>
       <use xlink:href="#DejaVuSans-30" x="63.623047"/>
       <use xlink:href="#DejaVuSans-2e" x="127.246094"/>
       <use xlink:href="#DejaVuSans-30" x="159.033203"/>
       <use xlink:href="#DejaVuSans-25" x="222.65625"/>
      </g>
     </g>
    </g>
    <g id="xtick_4">
     <g id="line2d_7">
      <path d="M 473.994464 404.64 
L 473.994464 72 
" clip-path="url(#pf6cd2acf58)" style="fill: none; stroke-dasharray: 0.925,0.4; stroke-dashoffset: 0; stroke: #808080; stroke-opacity: 0.5; stroke-width: 0.25"/>
     </g>
     <g id="line2d_8">
      <g>
       <use xlink:href="#mde5472a80b" x="473.994464" y="404.64" style="stroke: #000000; stroke-width: 0.8"/>
      </g>
     </g>
     <g id="text_4">
      <!-- 60.0% -->
      <g transform="translate(458.110871 419.238438) scale(0.1 -0.1)">
       <defs>
        <path id="DejaVuSans-36" d="M 2113 2584 
Q 1688 2584 1439 2293 
Q 1191 2003 1191 1497 
Q 1191 994 1439 701 
Q 1688 409 2113 409 
Q 2538 409 2786 701 
Q 3034 994 3034 1497 
Q 3034 2003 2786 2293 
Q 2538 2584 2113 2584 
z
M 3366 4563 
L 3366 3988 
Q 3128 4100 2886 4159 
Q 2644 4219 2406 4219 
Q 1781 4219 1451 3797 
Q 1122 3375 1075 2522 
Q 1259 2794 1537 2939 
Q 1816 3084 2150 3084 
Q 2853 3084 3261 2657 
Q 3669 2231 3669 1497 
Q 3669 778 3244 343 
Q 2819 -91 2113 -91 
Q 1303 -91 875 529 
Q 447 1150 447 2328 
Q 447 3434 972 4092 
Q 1497 4750 2381 4750 
Q 2619 4750 2861 4703 
Q 3103 4656 3366 4563 
z
" transform="scale(0.015625)"/>
       </defs>
       <use xlink:href="#DejaVuSans-36"/>
       <use xlink:href="#DejaVuSans-30" x="63.623047"/>
       <use xlink:href="#DejaVuSans-2e" x="127.246094"/>
       <use xlink:href="#DejaVuSans-30" x="159.033203"/>
       <use xlink:href="#DejaVuSans-25" x="222.65625"/>
      </g>
     </g>
    </g>
    <g id="xtick_5">
     <g id="line2d_9">
      <path d="M 559.023036 404.64 
L 559.023036 72 
" clip-path="url(#pf6cd2acf58)" style="fill: none; stroke-dasharray: 0.925,0.4; stroke-dashoffset: 0; stroke: #808080; stroke-opacity: 0.5; stroke-width: 0.25"/>
     </g>
     <g id="line2d_10">
      <g>
       <use xlink:href="#mde5472a80b" x="559.023036" y="404.64" style="stroke: #000000; stroke-width: 0.8"/>
      </g>
     </g>
     <g id="text_5">
      <!-- 80.0% -->
      <g transform="translate(543.139442 419.238438) scale(0.1 -0.1)">
       <defs>
        <path id="DejaVuSans-38" d="M 2034 2216 
Q 1584 2216 1326 1975 
Q 1069 1734 1069 1313 
Q 1069 891 1326 650 
Q 1584 409 2034 409 
Q 2484 409 2743 651 
Q 3003 894 3003 1313 
Q 3003 1734 2745 1975 
Q 2488 2216 2034 2216 
z
M 1403 2484 
Q 997 2584 770 2862 
Q 544 3141 544 3541 
Q 544 4100 942 4425 
Q 1341 4750 2034 4750 
Q 2731 4750 3128 4425 
Q 3525 4100 3525 3541 
Q 3525 3141 3298 2862 
Q 3072 2584 2669 2484 
Q 3125 2378 3379 2068 
Q 3634 1759 3634 1313 
Q 3634 634 3220 271 
Q 2806 -91 2034 -91 
Q 1263 -91 848 271 
Q 434 634 434 1313 
Q 434 1759 690 2068 
Q 947 2378 1403 2484 
z
M 1172 3481 
Q 1172 3119 1398 2916 
Q 1625 2713 2034 2713 
Q 2441 2713 2670 2916 
Q 2900 3119 2900 3481 
Q 2900 3844 2670 4047 
Q 2441 4250 2034 4250 
Q 1625 4250 1398 4047 
Q 1172 3844 1172 3481 
z
" transform="scale(0.015625)"/>
       </defs>
       <use xlink:href="#DejaVuSans-38"/>
       <use xlink:href="#DejaVuSans-30" x="63.623047"/>
       <use xlink:href="#DejaVuSans-2e" x="127.246094"/>
       <use xlink:href="#DejaVuSans-30" x="159.033203"/>
       <use xlink:href="#DejaVuSans-25" x="222.65625"/>
      </g>
     </g>
    </g>
    <g id="xtick_6">
     <g id="line2d_11">
      <path d="M 644.051607 404.64 
L 644.051607 72 
" clip-path="url(#pf6cd2acf58)" style="fill: none; stroke-dasharray: 0.925,0.4; stroke-dashoffset: 0; stroke: #808080; stroke-opacity: 0.5; stroke-width: 0.25"/>
     </g>
     <g id="line2d_12">
      <g>
       <use xlink:href="#mde5472a80b" x="644.051607" y="404.64" style="stroke: #000000; stroke-width: 0.8"/>
      </g>
     </g>
     <g id="text_6">
      <!-- 100.0% -->
      <g transform="translate(624.986763 419.238438) scale(0.1 -0.1)">
       <defs>
        <path id="DejaVuSans-31" d="M 794 531 
L 1825 531 
L 1825 4091 
L 703 3866 
L 703 4441 
L 1819 4666 
L 2450 4666 
L 2450 531 
L 3481 531 
L 3481 0 
L 794 0 
L 794 531 
z
" transform="scale(0.015625)"/>
       </defs>
       <use xlink:href="#DejaVuSans-31"/>
       <use xlink:href="#DejaVuSans-30" x="63.623047"/>
       <use xlink:href="#DejaVuSans-30" x="127.246094"/>
       <use xlink:href="#DejaVuSans-2e" x="190.869141"/>
       <use xlink:href="#DejaVuSans-30" x="222.65625"/>
       <use xlink:href="#DejaVuSans-25" x="286.279297"/>
      </g>
     </g>
    </g>
    <g id="text_7">
     <!-- % Buildings Damaged -->
     <g transform="translate(376 434.43625) scale(0.12 -0.12)">
      <defs>
       <path id="DejaVuSans-20" transform="scale(0.015625)"/>
       <path id="DejaVuSans-42" d="M 1259 2228 
L 1259 519 
L 2272 519 
Q 2781 519 3026 730 
Q 3272 941 3272 1375 
Q 3272 1813 3026 2020 
Q 2781 2228 2272 2228 
L 1259 2228 
z
M 1259 4147 
L 1259 2741 
L 2194 2741 
Q 2656 2741 2882 2914 
Q 3109 3088 3109 3444 
Q 3109 3797 2882 3972 
Q 2656 4147 2194 4147 
L 1259 4147 
z
M 628 4666 
L 2241 4666 
Q 2963 4666 3353 4366 
Q 3744 4066 3744 3513 
Q 3744 3084 3544 2831 
Q 3344 2578 2956 2516 
Q 3422 2416 3680 2098 
Q 3938 1781 3938 1306 
Q 3938 681 3513 340 
Q 3088 0 2303 0 
L 628 0 
L 628 4666 
z
" transform="scale(0.015625)"/>
       <path id="DejaVuSans-75" d="M 544 1381 
L 544 3500 
L 1119 3500 
L 1119 1403 
Q 1119 906 1312 657 
Q 1506 409 1894 409 
Q 2359 409 2629 706 
Q 2900 1003 2900 1516 
L 2900 3500 
L 3475 3500 
L 3475 0 
L 2900 0 
L 2900 538 
Q 2691 219 2414 64 
Q 2138 -91 1772 -91 
Q 1169 -91 856 284 
Q 544 659 544 1381 
z
M 1991 3584 
L 1991 3584 
z
" transform="scale(0.015625)"/>
       <path id="DejaVuSans-69" d="M 603 3500 
L 1178 3500 
L 1178 0 
L 603 0 
L 603 3500 
z
M 603 4863 
L 1178 4863 
L 1178 4134 
L 603 4134 
L 603 4863 
z
" transform="scale(0.015625)"/>
       <path id="DejaVuSans-6c" d="M 603 4863 
L 1178 4863 
L 1178 0 
L 603 0 
L 603 4863 
z
" transform="scale(0.015625)"/>
       <path id="DejaVuSans-64" d="M 2906 2969 
L 2906 4863 
L 3481 4863 
L 3481 0 
L 2906 0 
L 2906 525 
Q 2725 213 2448 61 
Q 2172 -91 1784 -91 
Q 1150 -91 751 415 
Q 353 922 353 1747 
Q 353 2572 751 3078 
Q 1150 3584 1784 3584 
Q 2172 3584 2448 3432 
Q 2725 3281 2906 2969 
z
M 947 1747 
Q 947 1113 1208 752 
Q 1469 391 1925 391 
Q 2381 391 2643 752 
Q 2906 1113 2906 1747 
Q 2906 2381 2643 2742 
Q 2381 3103 1925 3103 
Q 1469 3103 1208 2742 
Q 947 2381 947 1747 
z
" transform="scale(0.015625)"/>
       <path id="DejaVuSans-6e" d="M 3513 2113 
L 3513 0 
L 2938 0 
L 2938 2094 
Q 2938 2591 2744 2837 
Q 2550 3084 2163 3084 
Q 1697 3084 1428 2787 
Q 1159 2491 1159 1978 
L 1159 0 
L 581 0 
L 581 3500 
L 1159 3500 
L 1159 2956 
Q 1366 3272 1645 3428 
Q 1925 3584 2291 3584 
Q 2894 3584 3203 3211 
Q 3513 2838 3513 2113 
z
" transform="scale(0.015625)"/>
       <path id="DejaVuSans-67" d="M 2906 1791 
Q 2906 2416 2648 2759 
Q 2391 3103 1925 3103 
Q 1463 3103 1205 2759 
Q 947 2416 947 1791 
Q 947 1169 1205 825 
Q 1463 481 1925 481 
Q 2391 481 2648 825 
Q 2906 1169 2906 1791 
z
M 3481 434 
Q 3481 -459 3084 -895 
Q 2688 -1331 1869 -1331 
Q 1566 -1331 1297 -1286 
Q 1028 -1241 775 -1147 
L 775 -588 
Q 1028 -725 1275 -790 
Q 1522 -856 1778 -856 
Q 2344 -856 2625 -561 
Q 2906 -266 2906 331 
L 2906 616 
Q 2728 306 2450 153 
Q 2172 0 1784 0 
Q 1141 0 747 490 
Q 353 981 353 1791 
Q 353 2603 747 3093 
Q 1141 3584 1784 3584 
Q 2172 3584 2450 3431 
Q 2728 3278 2906 2969 
L 2906 3500 
L 3481 3500 
L 3481 434 
z
" transform="scale(0.015625)"/>
       <path id="DejaVuSans-73" d="M 2834 3397 
L 2834 2853 
Q 2591 2978 2328 3040 
Q 2066 3103 1784 3103 
Q 1356 3103 1142 2972 
Q 928 2841 928 2578 
Q 928 2378 1081 2264 
Q 1234 2150 1697 2047 
L 1894 2003 
Q 2506 1872 2764 1633 
Q 3022 1394 3022 966 
Q 3022 478 2636 193 
Q 2250 -91 1575 -91 
Q 1294 -91 989 -36 
Q 684 19 347 128 
L 347 722 
Q 666 556 975 473 
Q 1284 391 1588 391 
Q 1994 391 2212 530 
Q 2431 669 2431 922 
Q 2431 1156 2273 1281 
Q 2116 1406 1581 1522 
L 1381 1569 
Q 847 1681 609 1914 
Q 372 2147 372 2553 
Q 372 3047 722 3315 
Q 1072 3584 1716 3584 
Q 2034 3584 2315 3537 
Q 2597 3491 2834 3397 
z
" transform="scale(0.015625)"/>
       <path id="DejaVuSans-44" d="M 1259 4147 
L 1259 519 
L 2022 519 
Q 2988 519 3436 956 
Q 3884 1394 3884 2338 
Q 3884 3275 3436 3711 
Q 2988 4147 2022 4147 
L 1259 4147 
z
M 628 4666 
L 1925 4666 
Q 3281 4666 3915 4102 
Q 4550 3538 4550 2338 
Q 4550 1131 3912 565 
Q 3275 0 1925 0 
L 628 0 
L 628 4666 
z
" transform="scale(0.015625)"/>
       <path id="DejaVuSans-61" d="M 2194 1759 
Q 1497 1759 1228 1600 
Q 959 1441 959 1056 
Q 959 750 1161 570 
Q 1363 391 1709 391 
Q 2188 391 2477 730 
Q 2766 1069 2766 1631 
L 2766 1759 
L 2194 1759 
z
M 3341 1997 
L 3341 0 
L 2766 0 
L 2766 531 
Q 2569 213 2275 61 
Q 1981 -91 1556 -91 
Q 1019 -91 701 211 
Q 384 513 384 1019 
Q 384 1609 779 1909 
Q 1175 2209 1959 2209 
L 2766 2209 
L 2766 2266 
Q 2766 2663 2505 2880 
Q 2244 3097 1772 3097 
Q 1472 3097 1187 3025 
Q 903 2953 641 2809 
L 641 3341 
Q 956 3463 1253 3523 
Q 1550 3584 1831 3584 
Q 2591 3584 2966 3190 
Q 3341 2797 3341 1997 
z
" transform="scale(0.015625)"/>
       <path id="DejaVuSans-6d" d="M 3328 2828 
Q 3544 3216 3844 3400 
Q 4144 3584 4550 3584 
Q 5097 3584 5394 3201 
Q 5691 2819 5691 2113 
L 5691 0 
L 5113 0 
L 5113 2094 
Q 5113 2597 4934 2840 
Q 4756 3084 4391 3084 
Q 3944 3084 3684 2787 
Q 3425 2491 3425 1978 
L 3425 0 
L 2847 0 
L 2847 2094 
Q 2847 2600 2669 2842 
Q 2491 3084 2119 3084 
Q 1678 3084 1418 2786 
Q 1159 2488 1159 1978 
L 1159 0 
L 581 0 
L 581 3500 
L 1159 3500 
L 1159 2956 
Q 1356 3278 1631 3431 
Q 1906 3584 2284 3584 
Q 2666 3584 2933 3390 
Q 3200 3197 3328 2828 
z
" transform="scale(0.015625)"/>
       <path id="DejaVuSans-65" d="M 3597 1894 
L 3597 1613 
L 953 1613 
Q 991 1019 1311 708 
Q 1631 397 2203 397 
Q 2534 397 2845 478 
Q 3156 559 3463 722 
L 3463 178 
Q 3153 47 2828 -22 
Q 2503 -91 2169 -91 
Q 1331 -91 842 396 
Q 353 884 353 1716 
Q 353 2575 817 3079 
Q 1281 3584 2069 3584 
Q 2775 3584 3186 3129 
Q 3597 2675 3597 1894 
z
M 3022 2063 
Q 3016 2534 2758 2815 
Q 2500 3097 2075 3097 
Q 1594 3097 1305 2825 
Q 1016 2553 972 2059 
L 3022 2063 
z
" transform="scale(0.015625)"/>
      </defs>
      <use xlink:href="#DejaVuSans-25"/>
      <use xlink:href="#DejaVuSans-20" x="95.019531"/>
      <use xlink:href="#DejaVuSans-42" x="126.806641"/>
      <use xlink:href="#DejaVuSans-75" x="195.410156"/>
      <use xlink:href="#DejaVuSans-69" x="258.789062"/>
      <use xlink:href="#DejaVuSans-6c" x="286.572266"/>
      <use xlink:href="#DejaVuSans-64" x="314.355469"/>
      <use xlink:href="#DejaVuSans-69" x="377.832031"/>
      <use xlink:href="#DejaVuSans-6e" x="405.615234"/>
      <use xlink:href="#DejaVuSans-67" x="468.994141"/>
      <use xlink:href="#DejaVuSans-73" x="532.470703"/>
      <use xlink:href="#DejaVuSans-20" x="584.570312"/>
      <use xlink:href="#DejaVuSans-44" x="616.357422"/>
      <use xlink:href="#DejaVuSans-61" x="693.359375"/>
      <use xlink:href="#DejaVuSans-6d" x="754.638672"/>
      <use xlink:href="#DejaVuSans-61" x="852.050781"/>
      <use xlink:href="#DejaVuSans-67" x="913.330078"/>
      <use xlink:href="#DejaVuSans-65" x="976.806641"/>
      <use xlink:href="#DejaVuSans-64" x="1038.330078"/>
     </g>
    </g>
   </g>
   <g id="matplotlib.axis_2">
    <g id="ytick_1">
     <g id="line2d_13">
      <defs>
       <path id="m0010e80efe" d="M 0 0 
L -3.5 0 
" style="stroke: #000000; stroke-width: 0.8"/>
      </defs>
      <g>
       <use xlink:href="#m0010e80efe" x="218.90875" y="371.376" style="stroke: #000000; stroke-width: 0.8"/>
      </g>
     </g>
     <g id="text_8">
      <!-- Gaza -->
      <g transform="translate(181.605 375.935063) scale(0.12 -0.12)">
       <defs>
        <path id="DejaVuSans-47" d="M 3809 666 
L 3809 1919 
L 2778 1919 
L 2778 2438 
L 4434 2438 
L 4434 434 
Q 4069 175 3628 42 
Q 3188 -91 2688 -91 
Q 1594 -91 976 548 
Q 359 1188 359 2328 
Q 359 3472 976 4111 
Q 1594 4750 2688 4750 
Q 3144 4750 3555 4637 
Q 3966 4525 4313 4306 
L 4313 3634 
Q 3963 3931 3569 4081 
Q 3175 4231 2741 4231 
Q 1884 4231 1454 3753 
Q 1025 3275 1025 2328 
Q 1025 1384 1454 906 
Q 1884 428 2741 428 
Q 3075 428 3337 486 
Q 3600 544 3809 666 
z
" transform="scale(0.015625)"/>
        <path id="DejaVuSans-7a" d="M 353 3500 
L 3084 3500 
L 3084 2975 
L 922 459 
L 3084 459 
L 3084 0 
L 275 0 
L 275 525 
L 2438 3041 
L 353 3041 
L 353 3500 
z
" transform="scale(0.015625)"/>
       </defs>
       <use xlink:href="#DejaVuSans-47"/>
       <use xlink:href="#DejaVuSans-61" x="77.490234"/>
       <use xlink:href="#DejaVuSans-7a" x="138.769531"/>
       <use xlink:href="#DejaVuSans-61" x="191.259766"/>
      </g>
     </g>
    </g>
    <g id="ytick_2">
     <g id="line2d_14">
      <g>
       <use xlink:href="#m0010e80efe" x="218.90875" y="304.848" style="stroke: #000000; stroke-width: 0.8"/>
      </g>
     </g>
     <g id="text_9">
      <!-- Khan Younis -->
      <g transform="translate(139.785 309.407063) scale(0.12 -0.12)">
       <defs>
        <path id="DejaVuSans-4b" d="M 628 4666 
L 1259 4666 
L 1259 2694 
L 3353 4666 
L 4166 4666 
L 1850 2491 
L 4331 0 
L 3500 0 
L 1259 2247 
L 1259 0 
L 628 0 
L 628 4666 
z
" transform="scale(0.015625)"/>
        <path id="DejaVuSans-68" d="M 3513 2113 
L 3513 0 
L 2938 0 
L 2938 2094 
Q 2938 2591 2744 2837 
Q 2550 3084 2163 3084 
Q 1697 3084 1428 2787 
Q 1159 2491 1159 1978 
L 1159 0 
L 581 0 
L 581 4863 
L 1159 4863 
L 1159 2956 
Q 1366 3272 1645 3428 
Q 1925 3584 2291 3584 
Q 2894 3584 3203 3211 
Q 3513 2838 3513 2113 
z
" transform="scale(0.015625)"/>
        <path id="DejaVuSans-59" d="M -13 4666 
L 666 4666 
L 1959 2747 
L 3244 4666 
L 3922 4666 
L 2272 2222 
L 2272 0 
L 1638 0 
L 1638 2222 
L -13 4666 
z
" transform="scale(0.015625)"/>
        <path id="DejaVuSans-6f" d="M 1959 3097 
Q 1497 3097 1228 2736 
Q 959 2375 959 1747 
Q 959 1119 1226 758 
Q 1494 397 1959 397 
Q 2419 397 2687 759 
Q 2956 1122 2956 1747 
Q 2956 2369 2687 2733 
Q 2419 3097 1959 3097 
z
M 1959 3584 
Q 2709 3584 3137 3096 
Q 3566 2609 3566 1747 
Q 3566 888 3137 398 
Q 2709 -91 1959 -91 
Q 1206 -91 779 398 
Q 353 888 353 1747 
Q 353 2609 779 3096 
Q 1206 3584 1959 3584 
z
" transform="scale(0.015625)"/>
       </defs>
       <use xlink:href="#DejaVuSans-4b"/>
       <use xlink:href="#DejaVuSans-68" x="65.576172"/>
       <use xlink:href="#DejaVuSans-61" x="128.955078"/>
       <use xlink:href="#DejaVuSans-6e" x="190.234375"/>
       <use xlink:href="#DejaVuSans-20" x="253.613281"/>
       <use xlink:href="#DejaVuSans-59" x="285.400391"/>
       <use xlink:href="#DejaVuSans-6f" x="333.234375"/>
       <use xlink:href="#DejaVuSans-75" x="394.416016"/>
       <use xlink:href="#DejaVuSans-6e" x="457.794922"/>
       <use xlink:href="#DejaVuSans-69" x="521.173828"/>
       <use xlink:href="#DejaVuSans-73" x="548.957031"/>
      </g>
     </g>
    </g>
    <g id="ytick_3">
     <g id="line2d_15">
      <g>
       <use xlink:href="#m0010e80efe" x="218.90875" y="238.32" style="stroke: #000000; stroke-width: 0.8"/>
      </g>
     </g>
     <g id="text_10">
      <!-- North Gaza -->
      <g transform="translate(144.22875 242.879063) scale(0.12 -0.12)">
       <defs>
        <path id="DejaVuSans-4e" d="M 628 4666 
L 1478 4666 
L 3547 763 
L 3547 4666 
L 4159 4666 
L 4159 0 
L 3309 0 
L 1241 3903 
L 1241 0 
L 628 0 
L 628 4666 
z
" transform="scale(0.015625)"/>
        <path id="DejaVuSans-72" d="M 2631 2963 
Q 2534 3019 2420 3045 
Q 2306 3072 2169 3072 
Q 1681 3072 1420 2755 
Q 1159 2438 1159 1844 
L 1159 0 
L 581 0 
L 581 3500 
L 1159 3500 
L 1159 2956 
Q 1341 3275 1631 3429 
Q 1922 3584 2338 3584 
Q 2397 3584 2469 3576 
Q 2541 3569 2628 3553 
L 2631 2963 
z
" transform="scale(0.015625)"/>
        <path id="DejaVuSans-74" d="M 1172 4494 
L 1172 3500 
L 2356 3500 
L 2356 3053 
L 1172 3053 
L 1172 1153 
Q 1172 725 1289 603 
Q 1406 481 1766 481 
L 2356 481 
L 2356 0 
L 1766 0 
Q 1100 0 847 248 
Q 594 497 594 1153 
L 594 3053 
L 172 3053 
L 172 3500 
L 594 3500 
L 594 4494 
L 1172 4494 
z
" transform="scale(0.015625)"/>
       </defs>
       <use xlink:href="#DejaVuSans-4e"/>
       <use xlink:href="#DejaVuSans-6f" x="74.804688"/>
       <use xlink:href="#DejaVuSans-72" x="135.986328"/>
       <use xlink:href="#DejaVuSans-74" x="177.099609"/>
       <use xlink:href="#DejaVuSans-68" x="216.308594"/>
       <use xlink:href="#DejaVuSans-20" x="279.6875"/>
       <use xlink:href="#DejaVuSans-47" x="311.474609"/>
       <use xlink:href="#DejaVuSans-61" x="388.964844"/>
       <use xlink:href="#DejaVuSans-7a" x="450.244141"/>
       <use xlink:href="#DejaVuSans-61" x="502.734375"/>
      </g>
     </g>
    </g>
    <g id="ytick_4">
     <g id="line2d_16">
      <g>
       <use xlink:href="#m0010e80efe" x="218.90875" y="171.792" style="stroke: #000000; stroke-width: 0.8"/>
      </g>
     </g>
     <g id="text_11">
      <!-- Deir Al-Balah -->
      <g transform="translate(133.888125 176.351063) scale(0.12 -0.12)">
       <defs>
        <path id="DejaVuSans-41" d="M 2188 4044 
L 1331 1722 
L 3047 1722 
L 2188 4044 
z
M 1831 4666 
L 2547 4666 
L 4325 0 
L 3669 0 
L 3244 1197 
L 1141 1197 
L 716 0 
L 50 0 
L 1831 4666 
z
" transform="scale(0.015625)"/>
        <path id="DejaVuSans-2d" d="M 313 2009 
L 1997 2009 
L 1997 1497 
L 313 1497 
L 313 2009 
z
" transform="scale(0.015625)"/>
       </defs>
       <use xlink:href="#DejaVuSans-44"/>
       <use xlink:href="#DejaVuSans-65" x="77.001953"/>
       <use xlink:href="#DejaVuSans-69" x="138.525391"/>
       <use xlink:href="#DejaVuSans-72" x="166.308594"/>
       <use xlink:href="#DejaVuSans-20" x="207.421875"/>
       <use xlink:href="#DejaVuSans-41" x="239.208984"/>
       <use xlink:href="#DejaVuSans-6c" x="307.617188"/>
       <use xlink:href="#DejaVuSans-2d" x="335.400391"/>
       <use xlink:href="#DejaVuSans-42" x="367.859375"/>
       <use xlink:href="#DejaVuSans-61" x="436.462891"/>
       <use xlink:href="#DejaVuSans-6c" x="497.742188"/>
       <use xlink:href="#DejaVuSans-61" x="525.525391"/>
       <use xlink:href="#DejaVuSans-68" x="586.804688"/>
      </g>
     </g>
    </g>
    <g id="ytick_5">
     <g id="line2d_17">
      <g>
       <use xlink:href="#m0010e80efe" x="218.90875" y="105.264" style="stroke: #000000; stroke-width: 0.8"/>
      </g>
     </g>
     <g id="text_12">
      <!-- Rafah -->
      <g transform="translate(177.30375 109.823063) scale(0.12 -0.12)">
       <defs>
        <path id="DejaVuSans-52" d="M 2841 2188 
Q 3044 2119 3236 1894 
Q 3428 1669 3622 1275 
L 4263 0 
L 3584 0 
L 2988 1197 
Q 2756 1666 2539 1819 
Q 2322 1972 1947 1972 
L 1259 1972 
L 1259 0 
L 628 0 
L 628 4666 
L 2053 4666 
Q 2853 4666 3247 4331 
Q 3641 3997 3641 3322 
Q 3641 2881 3436 2590 
Q 3231 2300 2841 2188 
z
M 1259 4147 
L 1259 2491 
L 2053 2491 
Q 2509 2491 2742 2702 
Q 2975 2913 2975 3322 
Q 2975 3731 2742 3939 
Q 2509 4147 2053 4147 
L 1259 4147 
z
" transform="scale(0.015625)"/>
        <path id="DejaVuSans-66" d="M 2375 4863 
L 2375 4384 
L 1825 4384 
Q 1516 4384 1395 4259 
Q 1275 4134 1275 3809 
L 1275 3500 
L 2222 3500 
L 2222 3053 
L 1275 3053 
L 1275 0 
L 697 0 
L 697 3053 
L 147 3053 
L 147 3500 
L 697 3500 
L 697 3744 
Q 697 4328 969 4595 
Q 1241 4863 1831 4863 
L 2375 4863 
z
" transform="scale(0.015625)"/>
       </defs>
       <use xlink:href="#DejaVuSans-52"/>
       <use xlink:href="#DejaVuSans-61" x="67.232422"/>
       <use xlink:href="#DejaVuSans-66" x="128.511719"/>
       <use xlink:href="#DejaVuSans-61" x="163.716797"/>
       <use xlink:href="#DejaVuSans-68" x="224.996094"/>
      </g>
     </g>
    </g>
    <g id="text_13">
     <!-- Adm 2 -->
     <g transform="translate(126.560625 264.15625) rotate(-90) scale(0.16 -0.16)">
      <use xlink:href="#DejaVuSans-41"/>
      <use xlink:href="#DejaVuSans-64" x="66.658203"/>
      <use xlink:href="#DejaVuSans-6d" x="130.134766"/>
      <use xlink:href="#DejaVuSans-20" x="227.546875"/>
      <use xlink:href="#DejaVuSans-32" x="259.333984"/>
     </g>
    </g>
   </g>
   <g id="patch_13">
    <path d="M 218.90875 404.64 
L 218.90875 72 
" style="fill: none; stroke: #000000; stroke-width: 0.8; stroke-linejoin: miter; stroke-linecap: square"/>
   </g>
   <g id="patch_14">
    <path d="M 218.90875 404.64 
L 665.30875 404.64 
" style="fill: none; stroke: #000000; stroke-width: 0.8; stroke-linejoin: miter; stroke-linecap: square"/>
   </g>
   <g id="text_14">
    <!-- Source: World Bank calculations derived from OpenStreetMap and Sentinel-1 data. -->
    <g transform="translate(218.90875 473.927375) scale(0.1 -0.1)">
     <defs>
      <path id="DejaVuSans-53" d="M 3425 4513 
L 3425 3897 
Q 3066 4069 2747 4153 
Q 2428 4238 2131 4238 
Q 1616 4238 1336 4038 
Q 1056 3838 1056 3469 
Q 1056 3159 1242 3001 
Q 1428 2844 1947 2747 
L 2328 2669 
Q 3034 2534 3370 2195 
Q 3706 1856 3706 1288 
Q 3706 609 3251 259 
Q 2797 -91 1919 -91 
Q 1588 -91 1214 -16 
Q 841 59 441 206 
L 441 856 
Q 825 641 1194 531 
Q 1563 422 1919 422 
Q 2459 422 2753 634 
Q 3047 847 3047 1241 
Q 3047 1584 2836 1778 
Q 2625 1972 2144 2069 
L 1759 2144 
Q 1053 2284 737 2584 
Q 422 2884 422 3419 
Q 422 4038 858 4394 
Q 1294 4750 2059 4750 
Q 2388 4750 2728 4690 
Q 3069 4631 3425 4513 
z
" transform="scale(0.015625)"/>
      <path id="DejaVuSans-63" d="M 3122 3366 
L 3122 2828 
Q 2878 2963 2633 3030 
Q 2388 3097 2138 3097 
Q 1578 3097 1268 2742 
Q 959 2388 959 1747 
Q 959 1106 1268 751 
Q 1578 397 2138 397 
Q 2388 397 2633 464 
Q 2878 531 3122 666 
L 3122 134 
Q 2881 22 2623 -34 
Q 2366 -91 2075 -91 
Q 1284 -91 818 406 
Q 353 903 353 1747 
Q 353 2603 823 3093 
Q 1294 3584 2113 3584 
Q 2378 3584 2631 3529 
Q 2884 3475 3122 3366 
z
" transform="scale(0.015625)"/>
      <path id="DejaVuSans-3a" d="M 750 794 
L 1409 794 
L 1409 0 
L 750 0 
L 750 794 
z
M 750 3309 
L 1409 3309 
L 1409 2516 
L 750 2516 
L 750 3309 
z
" transform="scale(0.015625)"/>
      <path id="DejaVuSans-57" d="M 213 4666 
L 850 4666 
L 1831 722 
L 2809 4666 
L 3519 4666 
L 4500 722 
L 5478 4666 
L 6119 4666 
L 4947 0 
L 4153 0 
L 3169 4050 
L 2175 0 
L 1381 0 
L 213 4666 
z
" transform="scale(0.015625)"/>
      <path id="DejaVuSans-6b" d="M 581 4863 
L 1159 4863 
L 1159 1991 
L 2875 3500 
L 3609 3500 
L 1753 1863 
L 3688 0 
L 2938 0 
L 1159 1709 
L 1159 0 
L 581 0 
L 581 4863 
z
" transform="scale(0.015625)"/>
      <path id="DejaVuSans-76" d="M 191 3500 
L 800 3500 
L 1894 563 
L 2988 3500 
L 3597 3500 
L 2284 0 
L 1503 0 
L 191 3500 
z
" transform="scale(0.015625)"/>
      <path id="DejaVuSans-4f" d="M 2522 4238 
Q 1834 4238 1429 3725 
Q 1025 3213 1025 2328 
Q 1025 1447 1429 934 
Q 1834 422 2522 422 
Q 3209 422 3611 934 
Q 4013 1447 4013 2328 
Q 4013 3213 3611 3725 
Q 3209 4238 2522 4238 
z
M 2522 4750 
Q 3503 4750 4090 4092 
Q 4678 3434 4678 2328 
Q 4678 1225 4090 567 
Q 3503 -91 2522 -91 
Q 1538 -91 948 565 
Q 359 1222 359 2328 
Q 359 3434 948 4092 
Q 1538 4750 2522 4750 
z
" transform="scale(0.015625)"/>
      <path id="DejaVuSans-70" d="M 1159 525 
L 1159 -1331 
L 581 -1331 
L 581 3500 
L 1159 3500 
L 1159 2969 
Q 1341 3281 1617 3432 
Q 1894 3584 2278 3584 
Q 2916 3584 3314 3078 
Q 3713 2572 3713 1747 
Q 3713 922 3314 415 
Q 2916 -91 2278 -91 
Q 1894 -91 1617 61 
Q 1341 213 1159 525 
z
M 3116 1747 
Q 3116 2381 2855 2742 
Q 2594 3103 2138 3103 
Q 1681 3103 1420 2742 
Q 1159 2381 1159 1747 
Q 1159 1113 1420 752 
Q 1681 391 2138 391 
Q 2594 391 2855 752 
Q 3116 1113 3116 1747 
z
" transform="scale(0.015625)"/>
      <path id="DejaVuSans-4d" d="M 628 4666 
L 1569 4666 
L 2759 1491 
L 3956 4666 
L 4897 4666 
L 4897 0 
L 4281 0 
L 4281 4097 
L 3078 897 
L 2444 897 
L 1241 4097 
L 1241 0 
L 628 0 
L 628 4666 
z
" transform="scale(0.015625)"/>
     </defs>
     <use xlink:href="#DejaVuSans-53"/>
     <use xlink:href="#DejaVuSans-6f" x="63.476562"/>
     <use xlink:href="#DejaVuSans-75" x="124.658203"/>
     <use xlink:href="#DejaVuSans-72" x="188.037109"/>
     <use xlink:href="#DejaVuSans-63" x="226.900391"/>
     <use xlink:href="#DejaVuSans-65" x="281.880859"/>
     <use xlink:href="#DejaVuSans-3a" x="343.404297"/>
     <use xlink:href="#DejaVuSans-20" x="377.095703"/>
     <use xlink:href="#DejaVuSans-57" x="408.882812"/>
     <use xlink:href="#DejaVuSans-6f" x="501.884766"/>
     <use xlink:href="#DejaVuSans-72" x="563.066406"/>
     <use xlink:href="#DejaVuSans-6c" x="604.179688"/>
     <use xlink:href="#DejaVuSans-64" x="631.962891"/>
     <use xlink:href="#DejaVuSans-20" x="695.439453"/>
     <use xlink:href="#DejaVuSans-42" x="727.226562"/>
     <use xlink:href="#DejaVuSans-61" x="795.830078"/>
     <use xlink:href="#DejaVuSans-6e" x="857.109375"/>
     <use xlink:href="#DejaVuSans-6b" x="920.488281"/>
     <use xlink:href="#DejaVuSans-20" x="978.398438"/>
     <use xlink:href="#DejaVuSans-63" x="1010.185547"/>
     <use xlink:href="#DejaVuSans-61" x="1065.166016"/>
     <use xlink:href="#DejaVuSans-6c" x="1126.445312"/>
     <use xlink:href="#DejaVuSans-63" x="1154.228516"/>
     <use xlink:href="#DejaVuSans-75" x="1209.208984"/>
     <use xlink:href="#DejaVuSans-6c" x="1272.587891"/>
     <use xlink:href="#DejaVuSans-61" x="1300.371094"/>
     <use xlink:href="#DejaVuSans-74" x="1361.650391"/>
     <use xlink:href="#DejaVuSans-69" x="1400.859375"/>
     <use xlink:href="#DejaVuSans-6f" x="1428.642578"/>
     <use xlink:href="#DejaVuSans-6e" x="1489.824219"/>
     <use xlink:href="#DejaVuSans-73" x="1553.203125"/>
     <use xlink:href="#DejaVuSans-20" x="1605.302734"/>
     <use xlink:href="#DejaVuSans-64" x="1637.089844"/>
     <use xlink:href="#DejaVuSans-65" x="1700.566406"/>
     <use xlink:href="#DejaVuSans-72" x="1762.089844"/>
     <use xlink:href="#DejaVuSans-69" x="1803.203125"/>
     <use xlink:href="#DejaVuSans-76" x="1830.986328"/>
     <use xlink:href="#DejaVuSans-65" x="1890.166016"/>
     <use xlink:href="#DejaVuSans-64" x="1951.689453"/>
     <use xlink:href="#DejaVuSans-20" x="2015.166016"/>
     <use xlink:href="#DejaVuSans-66" x="2046.953125"/>
     <use xlink:href="#DejaVuSans-72" x="2082.158203"/>
     <use xlink:href="#DejaVuSans-6f" x="2121.021484"/>
     <use xlink:href="#DejaVuSans-6d" x="2182.203125"/>
     <use xlink:href="#DejaVuSans-20" x="2279.615234"/>
     <use xlink:href="#DejaVuSans-4f" x="2311.402344"/>
     <use xlink:href="#DejaVuSans-70" x="2390.113281"/>
     <use xlink:href="#DejaVuSans-65" x="2453.589844"/>
     <use xlink:href="#DejaVuSans-6e" x="2515.113281"/>
     <use xlink:href="#DejaVuSans-53" x="2578.492188"/>
     <use xlink:href="#DejaVuSans-74" x="2641.96875"/>
     <use xlink:href="#DejaVuSans-72" x="2681.177734"/>
     <use xlink:href="#DejaVuSans-65" x="2720.041016"/>
     <use xlink:href="#DejaVuSans-65" x="2781.564453"/>
     <use xlink:href="#DejaVuSans-74" x="2843.087891"/>
     <use xlink:href="#DejaVuSans-4d" x="2882.296875"/>
     <use xlink:href="#DejaVuSans-61" x="2968.576172"/>
     <use xlink:href="#DejaVuSans-70" x="3029.855469"/>
     <use xlink:href="#DejaVuSans-20" x="3093.332031"/>
     <use xlink:href="#DejaVuSans-61" x="3125.119141"/>
     <use xlink:href="#DejaVuSans-6e" x="3186.398438"/>
     <use xlink:href="#DejaVuSans-64" x="3249.777344"/>
     <use xlink:href="#DejaVuSans-20" x="3313.253906"/>
     <use xlink:href="#DejaVuSans-53" x="3345.041016"/>
     <use xlink:href="#DejaVuSans-65" x="3408.517578"/>
     <use xlink:href="#DejaVuSans-6e" x="3470.041016"/>
     <use xlink:href="#DejaVuSans-74" x="3533.419922"/>
     <use xlink:href="#DejaVuSans-69" x="3572.628906"/>
     <use xlink:href="#DejaVuSans-6e" x="3600.412109"/>
     <use xlink:href="#DejaVuSans-65" x="3663.791016"/>
     <use xlink:href="#DejaVuSans-6c" x="3725.314453"/>
     <use xlink:href="#DejaVuSans-2d" x="3753.097656"/>
     <use xlink:href="#DejaVuSans-31" x="3789.181641"/>
     <use xlink:href="#DejaVuSans-20" x="3852.804688"/>
     <use xlink:href="#DejaVuSans-64" x="3884.591797"/>
     <use xlink:href="#DejaVuSans-61" x="3948.068359"/>
     <use xlink:href="#DejaVuSans-74" x="4009.347656"/>
     <use xlink:href="#DejaVuSans-61" x="4048.556641"/>
     <use xlink:href="#DejaVuSans-2e" x="4109.835938"/>
    </g>
   </g>
   <g id="text_15">
    <!-- Estimated percentage of damaged industrial and commercial buildings for each second-level administrative division -->
    <g transform="translate(34.022969 66) scale(0.14 -0.14)">
     <defs>
      <path id="DejaVuSans-45" d="M 628 4666 
L 3578 4666 
L 3578 4134 
L 1259 4134 
L 1259 2753 
L 3481 2753 
L 3481 2222 
L 1259 2222 
L 1259 531 
L 3634 531 
L 3634 0 
L 628 0 
L 628 4666 
z
" transform="scale(0.015625)"/>
      <path id="DejaVuSans-62" d="M 3116 1747 
Q 3116 2381 2855 2742 
Q 2594 3103 2138 3103 
Q 1681 3103 1420 2742 
Q 1159 2381 1159 1747 
Q 1159 1113 1420 752 
Q 1681 391 2138 391 
Q 2594 391 2855 752 
Q 3116 1113 3116 1747 
z
M 1159 2969 
Q 1341 3281 1617 3432 
Q 1894 3584 2278 3584 
Q 2916 3584 3314 3078 
Q 3713 2572 3713 1747 
Q 3713 922 3314 415 
Q 2916 -91 2278 -91 
Q 1894 -91 1617 61 
Q 1341 213 1159 525 
L 1159 0 
L 581 0 
L 581 4863 
L 1159 4863 
L 1159 2969 
z
" transform="scale(0.015625)"/>
     </defs>
     <use xlink:href="#DejaVuSans-45"/>
     <use xlink:href="#DejaVuSans-73" x="63.183594"/>
     <use xlink:href="#DejaVuSans-74" x="115.283203"/>
     <use xlink:href="#DejaVuSans-69" x="154.492188"/>
     <use xlink:href="#DejaVuSans-6d" x="182.275391"/>
     <use xlink:href="#DejaVuSans-61" x="279.6875"/>
     <use xlink:href="#DejaVuSans-74" x="340.966797"/>
     <use xlink:href="#DejaVuSans-65" x="380.175781"/>
     <use xlink:href="#DejaVuSans-64" x="441.699219"/>
     <use xlink:href="#DejaVuSans-20" x="505.175781"/>
     <use xlink:href="#DejaVuSans-70" x="536.962891"/>
     <use xlink:href="#DejaVuSans-65" x="600.439453"/>
     <use xlink:href="#DejaVuSans-72" x="661.962891"/>
     <use xlink:href="#DejaVuSans-63" x="700.826172"/>
     <use xlink:href="#DejaVuSans-65" x="755.806641"/>
     <use xlink:href="#DejaVuSans-6e" x="817.330078"/>
     <use xlink:href="#DejaVuSans-74" x="880.708984"/>
     <use xlink:href="#DejaVuSans-61" x="919.917969"/>
     <use xlink:href="#DejaVuSans-67" x="981.197266"/>
     <use xlink:href="#DejaVuSans-65" x="1044.673828"/>
     <use xlink:href="#DejaVuSans-20" x="1106.197266"/>
     <use xlink:href="#DejaVuSans-6f" x="1137.984375"/>
     <use xlink:href="#DejaVuSans-66" x="1199.166016"/>
     <use xlink:href="#DejaVuSans-20" x="1234.371094"/>
     <use xlink:href="#DejaVuSans-64" x="1266.158203"/>
     <use xlink:href="#DejaVuSans-61" x="1329.634766"/>
     <use xlink:href="#DejaVuSans-6d" x="1390.914062"/>
     <use xlink:href="#DejaVuSans-61" x="1488.326172"/>
     <use xlink:href="#DejaVuSans-67" x="1549.605469"/>
     <use xlink:href="#DejaVuSans-65" x="1613.082031"/>
     <use xlink:href="#DejaVuSans-64" x="1674.605469"/>
     <use xlink:href="#DejaVuSans-20" x="1738.082031"/>
     <use xlink:href="#DejaVuSans-69" x="1769.869141"/>
     <use xlink:href="#DejaVuSans-6e" x="1797.652344"/>
     <use xlink:href="#DejaVuSans-64" x="1861.03125"/>
     <use xlink:href="#DejaVuSans-75" x="1924.507812"/>
     <use xlink:href="#DejaVuSans-73" x="1987.886719"/>
     <use xlink:href="#DejaVuSans-74" x="2039.986328"/>
     <use xlink:href="#DejaVuSans-72" x="2079.195312"/>
     <use xlink:href="#DejaVuSans-69" x="2120.308594"/>
     <use xlink:href="#DejaVuSans-61" x="2148.091797"/>
     <use xlink:href="#DejaVuSans-6c" x="2209.371094"/>
     <use xlink:href="#DejaVuSans-20" x="2237.154297"/>
     <use xlink:href="#DejaVuSans-61" x="2268.941406"/>
     <use xlink:href="#DejaVuSans-6e" x="2330.220703"/>
     <use xlink:href="#DejaVuSans-64" x="2393.599609"/>
     <use xlink:href="#DejaVuSans-20" x="2457.076172"/>
     <use xlink:href="#DejaVuSans-63" x="2488.863281"/>
     <use xlink:href="#DejaVuSans-6f" x="2543.84375"/>
     <use xlink:href="#DejaVuSans-6d" x="2605.025391"/>
     <use xlink:href="#DejaVuSans-6d" x="2702.4375"/>
     <use xlink:href="#DejaVuSans-65" x="2799.849609"/>
     <use xlink:href="#DejaVuSans-72" x="2861.373047"/>
     <use xlink:href="#DejaVuSans-63" x="2900.236328"/>
     <use xlink:href="#DejaVuSans-69" x="2955.216797"/>
     <use xlink:href="#DejaVuSans-61" x="2983"/>
     <use xlink:href="#DejaVuSans-6c" x="3044.279297"/>
     <use xlink:href="#DejaVuSans-20" x="3072.0625"/>
     <use xlink:href="#DejaVuSans-62" x="3103.849609"/>
     <use xlink:href="#DejaVuSans-75" x="3167.326172"/>
     <use xlink:href="#DejaVuSans-69" x="3230.705078"/>
     <use xlink:href="#DejaVuSans-6c" x="3258.488281"/>
     <use xlink:href="#DejaVuSans-64" x="3286.271484"/>
     <use xlink:href="#DejaVuSans-69" x="3349.748047"/>
     <use xlink:href="#DejaVuSans-6e" x="3377.53125"/>
     <use xlink:href="#DejaVuSans-67" x="3440.910156"/>
     <use xlink:href="#DejaVuSans-73" x="3504.386719"/>
     <use xlink:href="#DejaVuSans-20" x="3556.486328"/>
     <use xlink:href="#DejaVuSans-66" x="3588.273438"/>
     <use xlink:href="#DejaVuSans-6f" x="3623.478516"/>
     <use xlink:href="#DejaVuSans-72" x="3684.660156"/>
     <use xlink:href="#DejaVuSans-20" x="3725.773438"/>
     <use xlink:href="#DejaVuSans-65" x="3757.560547"/>
     <use xlink:href="#DejaVuSans-61" x="3819.083984"/>
     <use xlink:href="#DejaVuSans-63" x="3880.363281"/>
     <use xlink:href="#DejaVuSans-68" x="3935.34375"/>
     <use xlink:href="#DejaVuSans-20" x="3998.722656"/>
     <use xlink:href="#DejaVuSans-73" x="4030.509766"/>
     <use xlink:href="#DejaVuSans-65" x="4082.609375"/>
     <use xlink:href="#DejaVuSans-63" x="4144.132812"/>
     <use xlink:href="#DejaVuSans-6f" x="4199.113281"/>
     <use xlink:href="#DejaVuSans-6e" x="4260.294922"/>
     <use xlink:href="#DejaVuSans-64" x="4323.673828"/>
     <use xlink:href="#DejaVuSans-2d" x="4387.150391"/>
     <use xlink:href="#DejaVuSans-6c" x="4423.234375"/>
     <use xlink:href="#DejaVuSans-65" x="4451.017578"/>
     <use xlink:href="#DejaVuSans-76" x="4512.541016"/>
     <use xlink:href="#DejaVuSans-65" x="4571.720703"/>
     <use xlink:href="#DejaVuSans-6c" x="4633.244141"/>
     <use xlink:href="#DejaVuSans-20" x="4661.027344"/>
     <use xlink:href="#DejaVuSans-61" x="4692.814453"/>
     <use xlink:href="#DejaVuSans-64" x="4754.09375"/>
     <use xlink:href="#DejaVuSans-6d" x="4817.570312"/>
     <use xlink:href="#DejaVuSans-69" x="4914.982422"/>
     <use xlink:href="#DejaVuSans-6e" x="4942.765625"/>
     <use xlink:href="#DejaVuSans-69" x="5006.144531"/>
     <use xlink:href="#DejaVuSans-73" x="5033.927734"/>
     <use xlink:href="#DejaVuSans-74" x="5086.027344"/>
     <use xlink:href="#DejaVuSans-72" x="5125.236328"/>
     <use xlink:href="#DejaVuSans-61" x="5166.349609"/>
     <use xlink:href="#DejaVuSans-74" x="5227.628906"/>
     <use xlink:href="#DejaVuSans-69" x="5266.837891"/>
     <use xlink:href="#DejaVuSans-76" x="5294.621094"/>
     <use xlink:href="#DejaVuSans-65" x="5353.800781"/>
     <use xlink:href="#DejaVuSans-20" x="5415.324219"/>
     <use xlink:href="#DejaVuSans-64" x="5447.111328"/>
     <use xlink:href="#DejaVuSans-69" x="5510.587891"/>
     <use xlink:href="#DejaVuSans-76" x="5538.371094"/>
     <use xlink:href="#DejaVuSans-69" x="5597.550781"/>
     <use xlink:href="#DejaVuSans-73" x="5625.333984"/>
     <use xlink:href="#DejaVuSans-69" x="5677.433594"/>
     <use xlink:href="#DejaVuSans-6f" x="5705.216797"/>
     <use xlink:href="#DejaVuSans-6e" x="5766.398438"/>
    </g>
   </g>
   <g id="legend_1">
    <g id="patch_15">
     <path d="M 567.988437 399.64 
L 658.30875 399.64 
Q 660.30875 399.64 660.30875 397.64 
L 660.30875 369.28375 
Q 660.30875 367.28375 658.30875 367.28375 
L 567.988437 367.28375 
Q 565.988437 367.28375 565.988437 369.28375 
L 565.988437 397.64 
Q 565.988437 399.64 567.988437 399.64 
z
" style="fill: #ffffff; opacity: 0.8; stroke: #cccccc; stroke-linejoin: miter"/>
    </g>
    <g id="patch_16">
     <path d="M 569.988437 378.882188 
L 589.988437 378.882188 
L 589.988437 371.882188 
L 569.988437 371.882188 
z
" style="fill: #1f77b4"/>
    </g>
    <g id="text_16">
     <!-- industrial -->
     <g transform="translate(597.988437 378.882188) scale(0.1 -0.1)">
      <use xlink:href="#DejaVuSans-69"/>
      <use xlink:href="#DejaVuSans-6e" x="27.783203"/>
      <use xlink:href="#DejaVuSans-64" x="91.162109"/>
      <use xlink:href="#DejaVuSans-75" x="154.638672"/>
      <use xlink:href="#DejaVuSans-73" x="218.017578"/>
      <use xlink:href="#DejaVuSans-74" x="270.117188"/>
      <use xlink:href="#DejaVuSans-72" x="309.326172"/>
      <use xlink:href="#DejaVuSans-69" x="350.439453"/>
      <use xlink:href="#DejaVuSans-61" x="378.222656"/>
      <use xlink:href="#DejaVuSans-6c" x="439.501953"/>
     </g>
    </g>
    <g id="patch_17">
     <path d="M 569.988437 393.560313 
L 589.988437 393.560313 
L 589.988437 386.560313 
L 569.988437 386.560313 
z
" style="fill: #ff7f0e"/>
    </g>
    <g id="text_17">
     <!-- commercial -->
     <g transform="translate(597.988437 393.560313) scale(0.1 -0.1)">
      <use xlink:href="#DejaVuSans-63"/>
      <use xlink:href="#DejaVuSans-6f" x="54.980469"/>
      <use xlink:href="#DejaVuSans-6d" x="116.162109"/>
      <use xlink:href="#DejaVuSans-6d" x="213.574219"/>
      <use xlink:href="#DejaVuSans-65" x="310.986328"/>
      <use xlink:href="#DejaVuSans-72" x="372.509766"/>
      <use xlink:href="#DejaVuSans-63" x="411.373047"/>
      <use xlink:href="#DejaVuSans-69" x="466.353516"/>
      <use xlink:href="#DejaVuSans-61" x="494.136719"/>
      <use xlink:href="#DejaVuSans-6c" x="555.416016"/>
     </g>
    </g>
   </g>
  </g>
  <g id="text_18">
   <!-- Gaza: Percentage of Damaged Industrial and Commercial Buildings as of February 2nd 2024 -->
   <g transform="translate(7.2 22.396875) scale(0.2 -0.2)">
    <defs>
     <path id="DejaVuSans-50" d="M 1259 4147 
L 1259 2394 
L 2053 2394 
Q 2494 2394 2734 2622 
Q 2975 2850 2975 3272 
Q 2975 3691 2734 3919 
Q 2494 4147 2053 4147 
L 1259 4147 
z
M 628 4666 
L 2053 4666 
Q 2838 4666 3239 4311 
Q 3641 3956 3641 3272 
Q 3641 2581 3239 2228 
Q 2838 1875 2053 1875 
L 1259 1875 
L 1259 0 
L 628 0 
L 628 4666 
z
" transform="scale(0.015625)"/>
     <path id="DejaVuSans-49" d="M 628 4666 
L 1259 4666 
L 1259 0 
L 628 0 
L 628 4666 
z
" transform="scale(0.015625)"/>
     <path id="DejaVuSans-43" d="M 4122 4306 
L 4122 3641 
Q 3803 3938 3442 4084 
Q 3081 4231 2675 4231 
Q 1875 4231 1450 3742 
Q 1025 3253 1025 2328 
Q 1025 1406 1450 917 
Q 1875 428 2675 428 
Q 3081 428 3442 575 
Q 3803 722 4122 1019 
L 4122 359 
Q 3791 134 3420 21 
Q 3050 -91 2638 -91 
Q 1578 -91 968 557 
Q 359 1206 359 2328 
Q 359 3453 968 4101 
Q 1578 4750 2638 4750 
Q 3056 4750 3426 4639 
Q 3797 4528 4122 4306 
z
" transform="scale(0.015625)"/>
     <path id="DejaVuSans-46" d="M 628 4666 
L 3309 4666 
L 3309 4134 
L 1259 4134 
L 1259 2759 
L 3109 2759 
L 3109 2228 
L 1259 2228 
L 1259 0 
L 628 0 
L 628 4666 
z
" transform="scale(0.015625)"/>
     <path id="DejaVuSans-79" d="M 2059 -325 
Q 1816 -950 1584 -1140 
Q 1353 -1331 966 -1331 
L 506 -1331 
L 506 -850 
L 844 -850 
Q 1081 -850 1212 -737 
Q 1344 -625 1503 -206 
L 1606 56 
L 191 3500 
L 800 3500 
L 1894 763 
L 2988 3500 
L 3597 3500 
L 2059 -325 
z
" transform="scale(0.015625)"/>
    </defs>
    <use xlink:href="#DejaVuSans-47"/>
    <use xlink:href="#DejaVuSans-61" x="77.490234"/>
    <use xlink:href="#DejaVuSans-7a" x="138.769531"/>
    <use xlink:href="#DejaVuSans-61" x="191.259766"/>
    <use xlink:href="#DejaVuSans-3a" x="252.539062"/>
    <use xlink:href="#DejaVuSans-20" x="286.230469"/>
    <use xlink:href="#DejaVuSans-50" x="318.017578"/>
    <use xlink:href="#DejaVuSans-65" x="374.695312"/>
    <use xlink:href="#DejaVuSans-72" x="436.21875"/>
    <use xlink:href="#DejaVuSans-63" x="475.082031"/>
    <use xlink:href="#DejaVuSans-65" x="530.0625"/>
    <use xlink:href="#DejaVuSans-6e" x="591.585938"/>
    <use xlink:href="#DejaVuSans-74" x="654.964844"/>
    <use xlink:href="#DejaVuSans-61" x="694.173828"/>
    <use xlink:href="#DejaVuSans-67" x="755.453125"/>
    <use xlink:href="#DejaVuSans-65" x="818.929688"/>
    <use xlink:href="#DejaVuSans-20" x="880.453125"/>
    <use xlink:href="#DejaVuSans-6f" x="912.240234"/>
    <use xlink:href="#DejaVuSans-66" x="973.421875"/>
    <use xlink:href="#DejaVuSans-20" x="1008.626953"/>
    <use xlink:href="#DejaVuSans-44" x="1040.414062"/>
    <use xlink:href="#DejaVuSans-61" x="1117.416016"/>
    <use xlink:href="#DejaVuSans-6d" x="1178.695312"/>
    <use xlink:href="#DejaVuSans-61" x="1276.107422"/>
    <use xlink:href="#DejaVuSans-67" x="1337.386719"/>
    <use xlink:href="#DejaVuSans-65" x="1400.863281"/>
    <use xlink:href="#DejaVuSans-64" x="1462.386719"/>
    <use xlink:href="#DejaVuSans-20" x="1525.863281"/>
    <use xlink:href="#DejaVuSans-49" x="1557.650391"/>
    <use xlink:href="#DejaVuSans-6e" x="1587.142578"/>
    <use xlink:href="#DejaVuSans-64" x="1650.521484"/>
    <use xlink:href="#DejaVuSans-75" x="1713.998047"/>
    <use xlink:href="#DejaVuSans-73" x="1777.376953"/>
    <use xlink:href="#DejaVuSans-74" x="1829.476562"/>
    <use xlink:href="#DejaVuSans-72" x="1868.685547"/>
    <use xlink:href="#DejaVuSans-69" x="1909.798828"/>
    <use xlink:href="#DejaVuSans-61" x="1937.582031"/>
    <use xlink:href="#DejaVuSans-6c" x="1998.861328"/>
    <use xlink:href="#DejaVuSans-20" x="2026.644531"/>
    <use xlink:href="#DejaVuSans-61" x="2058.431641"/>
    <use xlink:href="#DejaVuSans-6e" x="2119.710938"/>
    <use xlink:href="#DejaVuSans-64" x="2183.089844"/>
    <use xlink:href="#DejaVuSans-20" x="2246.566406"/>
    <use xlink:href="#DejaVuSans-43" x="2278.353516"/>
    <use xlink:href="#DejaVuSans-6f" x="2348.177734"/>
    <use xlink:href="#DejaVuSans-6d" x="2409.359375"/>
    <use xlink:href="#DejaVuSans-6d" x="2506.771484"/>
    <use xlink:href="#DejaVuSans-65" x="2604.183594"/>
    <use xlink:href="#DejaVuSans-72" x="2665.707031"/>
    <use xlink:href="#DejaVuSans-63" x="2704.570312"/>
    <use xlink:href="#DejaVuSans-69" x="2759.550781"/>
    <use xlink:href="#DejaVuSans-61" x="2787.333984"/>
    <use xlink:href="#DejaVuSans-6c" x="2848.613281"/>
    <use xlink:href="#DejaVuSans-20" x="2876.396484"/>
    <use xlink:href="#DejaVuSans-42" x="2908.183594"/>
    <use xlink:href="#DejaVuSans-75" x="2976.787109"/>
    <use xlink:href="#DejaVuSans-69" x="3040.166016"/>
    <use xlink:href="#DejaVuSans-6c" x="3067.949219"/>
    <use xlink:href="#DejaVuSans-64" x="3095.732422"/>
    <use xlink:href="#DejaVuSans-69" x="3159.208984"/>
    <use xlink:href="#DejaVuSans-6e" x="3186.992188"/>
    <use xlink:href="#DejaVuSans-67" x="3250.371094"/>
    <use xlink:href="#DejaVuSans-73" x="3313.847656"/>
    <use xlink:href="#DejaVuSans-20" x="3365.947266"/>
    <use xlink:href="#DejaVuSans-61" x="3397.734375"/>
    <use xlink:href="#DejaVuSans-73" x="3459.013672"/>
    <use xlink:href="#DejaVuSans-20" x="3511.113281"/>
    <use xlink:href="#DejaVuSans-6f" x="3542.900391"/>
    <use xlink:href="#DejaVuSans-66" x="3604.082031"/>
    <use xlink:href="#DejaVuSans-20" x="3639.287109"/>
    <use xlink:href="#DejaVuSans-46" x="3671.074219"/>
    <use xlink:href="#DejaVuSans-65" x="3723.09375"/>
    <use xlink:href="#DejaVuSans-62" x="3784.617188"/>
    <use xlink:href="#DejaVuSans-72" x="3848.09375"/>
    <use xlink:href="#DejaVuSans-75" x="3889.207031"/>
    <use xlink:href="#DejaVuSans-61" x="3952.585938"/>
    <use xlink:href="#DejaVuSans-72" x="4013.865234"/>
    <use xlink:href="#DejaVuSans-79" x="4054.978516"/>
    <use xlink:href="#DejaVuSans-20" x="4114.158203"/>
    <use xlink:href="#DejaVuSans-32" x="4145.945312"/>
    <use xlink:href="#DejaVuSans-6e" x="4209.568359"/>
    <use xlink:href="#DejaVuSans-64" x="4272.947266"/>
    <use xlink:href="#DejaVuSans-20" x="4336.423828"/>
    <use xlink:href="#DejaVuSans-32" x="4368.210938"/>
    <use xlink:href="#DejaVuSans-30" x="4431.833984"/>
    <use xlink:href="#DejaVuSans-32" x="4495.457031"/>
    <use xlink:href="#DejaVuSans-34" x="4559.080078"/>
   </g>
  </g>
 </g>
 <defs>
  <clipPath id="pf6cd2acf58">
   <rect x="218.90875" y="72" width="446.4" height="332.64"/>
  </clipPath>
 </defs>
</svg>